C:\Users\israe\Dropbox\PhDWork\ExperimentalData\subject7\055\P7S055W09_filtered35.mot
nRows=18
nColumns=28

name C:\Users\israe\Dropbox\PhDWork\ExperimentalData\subject7\055\P7S055W09_filtered35.mot
datacolumns 28
datarows 18
range 0.7470000000 0.7640000000
endheader
time	ground_force_1_vx	ground_force_1_vy	ground_force_1_vz	ground_force_1_px	ground_force_1_py	ground_force_1_pz	ground_moment_1_mx	ground_moment_1_my	ground_moment_1_mz	ground_force_2_vx	ground_force_2_vy	ground_force_2_vz	ground_force_2_px	ground_force_2_py	ground_force_2_pz	ground_moment_2_mx	ground_moment_2_my	ground_moment_2_mz	ground_force_3_vx	ground_force_3_vy	ground_force_3_vz	ground_force_3_px	ground_force_3_py	ground_force_3_pz	ground_moment_3_mx	ground_moment_3_my	ground_moment_3_mz
        0.7470000000	       -1.8898716110	      548.2245130078	      -17.8545459063	        0.1988394961	        0.0000558755	       -0.3004071324	       25.0604047784	       -1.3568474335	       27.5206785364	        0.0000000000	        0.0000000000	        0.0000000000	        0.2029003516	       -0.0000795827	        0.4543649445	        0.0000000000	       -0.0000000000	        0.0000000000	       -0.0000000000	        0.0000000000	        0.0000000000	        0.2076431971	        0.0000770316	        1.3583900146	        0.0000000000	        0.0000000000	        0.0000000000	
        0.7480000000	       -1.7964698093	      548.1819362251	      -17.7099488623	        0.1988394961	        0.0000558755	       -0.3004071324	       24.8034200498	       -1.3823288232	       27.5144009554	        0.0000000000	        0.0000000000	        0.0000000000	        0.2029003516	       -0.0000795827	        0.4543649445	        0.0000000000	       -0.0000000000	        0.0000000000	       -0.0000000000	        0.0000000000	        0.0000000000	        0.2076431971	        0.0000770316	        1.3583900146	        0.0000000000	        0.0000000000	        0.0000000000	
        0.7490000000	       -1.7062378197	      548.1318108340	      -17.5655060247	        0.1988394961	        0.0000558755	       -0.3004071324	       24.5486257117	       -1.4067059296	       27.5087495814	       -0.0000000000	        0.0000000000	       -0.0000000000	        0.2029003516	       -0.0000795827	        0.4543649445	       -0.0000000000	       -0.0000000000	        0.0000000000	       -0.0000000000	        0.0000000000	        0.0000000000	        0.2076431971	        0.0000770316	        1.3583900146	        0.0000000000	        0.0000000000	        0.0000000000	
        0.7500000000	       -1.6211577796	      548.0763710948	      -17.4235225030	        0.1988394961	        0.0000558755	       -0.3004071324	       24.2955642408	       -1.4300444297	       27.5030281776	       -0.0000000000	        0.0000000000	       -0.0000000000	        0.2029003516	       -0.0000795827	        0.4543649445	       -0.0000000000	       -0.0000000000	        0.0000000000	       -0.0000000000	        0.0000000000	        0.0000000000	        0.2076431971	        0.0000770316	        1.3583900146	        0.0000000000	        0.0000000000	        0.0000000000	
        0.7510000000	       -1.5434059817	      548.0173287781	      -17.2861827231	        0.1988394961	        0.0000558755	       -0.3004071324	       24.0435159154	       -1.4524547289	       27.4966020809	       -0.0000000000	        0.0000000000	       -0.0000000000	        0.2029003516	       -0.0000795827	        0.4543649445	       -0.0000000000	       -0.0000000000	        0.0000000000	       -0.0000000000	        0.0000000000	        0.0000000000	        0.2076431971	        0.0000770316	        1.3583900146	        0.0000000000	        0.0000000000	        0.0000000000	
        0.7520000000	       -1.4747168484	      547.9563181455	      -17.1546704290	        0.1988394961	        0.0000558755	       -0.3004071324	       23.7917723623	       -1.4741455782	       27.4889648973	       -0.0000000000	        0.0000000000	       -0.0000000000	        0.2029003516	       -0.0000795827	        0.4543649445	       -0.0000000000	       -0.0000000000	        0.0000000000	       -0.0000000000	        0.0000000000	        0.0000000000	        0.2076431971	        0.0000770316	        1.3583900146	        0.0000000000	        0.0000000000	        0.0000000000	
        0.7530000000	       -1.4155211451	      547.8965126865	      -17.0292932695	        0.1988394961	        0.0000558755	       -0.3004071324	       23.5398563395	       -1.4953819665	       27.4797964666	       -0.0000000000	        0.0000000000	       -0.0000000000	        0.2029003516	       -0.0000795827	        0.4543649445	       -0.0000000000	       -0.0000000000	        0.0000000000	       -0.0000000000	        0.0000000000	        0.0000000000	        0.2076431971	        0.0000770316	        1.3583900146	        0.0000000000	        0.0000000000	        0.0000000000	
        0.7540000000	       -1.3648310446	      547.8411792669	      -16.9100206789	        0.1988394961	        0.0000558755	       -0.3004071324	       23.2874369366	       -1.5163597988	       27.4690795893	       -0.0000000000	        0.0000000000	       -0.0000000000	        0.2029003516	       -0.0000795827	        0.4543649445	       -0.0000000000	       -0.0000000000	       -0.0000000000	       -0.0000000000	        0.0000000000	       -0.0000000000	        0.2076431971	        0.0000770316	        1.3583900146	        0.0000000000	        0.0000000000	        0.0000000000	
        0.7550000000	       -1.3210229174	      547.7914574287	      -16.7960188959	        0.1988394961	        0.0000558755	       -0.3004071324	       23.0342446201	       -1.5372111808	       27.4570726372	       -0.0000000000	        0.0000000000	       -0.0000000000	        0.2029003516	       -0.0000795827	        0.4543649445	       -0.0000000000	       -0.0000000000	       -0.0000000000	       -0.0000000000	        0.0000000000	       -0.0000000000	        0.2076431971	        0.0000770316	        1.3583900146	        0.0000000000	        0.0000000000	        0.0000000000	
        0.7560000000	       -1.2823212272	      547.7473158545	      -16.6853155923	        0.1988394961	        0.0000558755	       -0.3004071324	       22.7801157452	       -1.5580516676	       27.4441755634	       -0.0000000000	        0.0000000000	       -0.0000000000	        0.2029003516	       -0.0000795827	        0.4543649445	       -0.0000000000	       -0.0000000000	       -0.0000000000	        0.0000000000	        0.0000000000	       -0.0000000000	        0.2076431971	        0.0000770316	        1.3583900146	        0.0000000000	        0.0000000000	        0.0000000000	
        0.7570000000	       -1.2468381495	      547.7098862397	      -16.5758844341	        0.1988394961	        0.0000558755	       -0.3004071324	       22.5249462095	       -1.5789073142	       27.4309048641	       -0.0000000000	        0.0000000000	       -0.0000000000	        0.2029003516	       -0.0000795827	        0.4543649445	       -0.0000000000	       -0.0000000000	       -0.0000000000	        0.0000000000	        0.0000000000	       -0.0000000000	        0.2076431971	        0.0000770316	        1.3583900146	        0.0000000000	       -0.0000000000	        0.0000000000	
        0.7580000000	       -1.2129319816	      547.6812038801	      -16.4666761428	        0.1988394961	        0.0000558755	       -0.3004071324	       22.2686819982	       -1.5996756516	       27.4178351600	       -0.0000000000	        0.0000000000	       -0.0000000000	        0.2029003516	       -0.0000795827	        0.4543649445	       -0.0000000000	       -0.0000000000	       -0.0000000000	        0.0000000000	        0.0000000000	       -0.0000000000	        0.2076431971	        0.0000770316	        1.3583900146	        0.0000000000	       -0.0000000000	        0.0000000000	
        0.7590000000	       -1.1796663728	      547.6625003921	      -16.3574826650	        0.1988394961	        0.0000558755	       -0.3004071324	       22.0115059416	       -1.6201473617	       27.4054150011	       -0.0000000000	        0.0000000000	       -0.0000000000	        0.2029003516	       -0.0000795827	        0.4543649445	       -0.0000000000	        0.0000000000	       -0.0000000000	        0.0000000000	        0.0000000000	       -0.0000000000	        0.2076431971	        0.0000770316	        1.3583900146	       -0.0000000000	       -0.0000000000	       -0.0000000000	
        0.7600000000	       -1.1468452117	      547.6552615500	      -16.2485115537	        0.1988394961	        0.0000558755	       -0.3004071324	       21.7540310601	       -1.6400085550	       27.3939593519	       -0.0000000000	        0.0000000000	       -0.0000000000	        0.2029003516	       -0.0000795827	        0.4543649445	       -0.0000000000	        0.0000000000	       -0.0000000000	        0.0000000000	        0.0000000000	       -0.0000000000	        0.2076431971	        0.0000770316	        1.3583900146	       -0.0000000000	       -0.0000000000	       -0.0000000000	
        0.7610000000	       -1.1149464924	      547.6628660663	      -16.1399276156	        0.1988394961	        0.0000558755	       -0.3004071324	       21.4972605004	       -1.6589258459	       27.3838681875	       -0.0000000000	        0.0000000000	       -0.0000000000	        0.2029003516	       -0.0000795827	        0.4543649445	       -0.0000000000	        0.0000000000	       -0.0000000000	        0.0000000000	        0.0000000000	       -0.0000000000	        0.2076431971	        0.0000770316	        1.3583900146	       -0.0000000000	       -0.0000000000	       -0.0000000000	
        0.7620000000	       -1.0848895956	      547.6888281362	      -16.0312329433	        0.1988394961	        0.0000558755	       -0.3004071324	       21.2423249237	       -1.6767225845	       27.3757644073	       -0.0000000000	        0.0000000000	       -0.0000000000	        0.2029003516	       -0.0000795827	        0.4543649445	       -0.0000000000	        0.0000000000	       -0.0000000000	        0.0000000000	        0.0000000000	       -0.0000000000	        0.2076431971	        0.0000770316	        1.3583900146	       -0.0000000000	       -0.0000000000	       -0.0000000000	
        0.7630000000	       -1.0572887637	      547.7344424372	      -15.9210344396	        0.1988394961	        0.0000558755	       -0.3004071324	       20.9901822726	       -1.6934660510	       27.3703824785	       -0.0000000000	        0.0000000000	       -0.0000000000	        0.2029003516	       -0.0000795827	        0.4543649445	       -0.0000000000	        0.0000000000	       -0.0000000000	        0.0000000000	        0.0000000000	       -0.0000000000	        0.2076431971	        0.0000770316	        1.3583900146	       -0.0000000000	       -0.0000000000	       -0.0000000000	
        0.7640000000	       -1.0318923922	      547.7981191558	      -15.8074881367	        0.1988394961	        0.0000558755	       -0.3004071324	       20.7414015135	       -1.7093923471	       27.3682038282	       -0.0000000000	        0.0000000000	       -0.0000000000	        0.2029003516	       -0.0000795827	        0.4543649445	       -0.0000000000	        0.0000000000	       -0.0000000000	        0.0000000000	        0.0000000000	       -0.0000000000	        0.2076431971	        0.0000770316	        1.3583900146	       -0.0000000000	       -0.0000000000	       -0.0000000000	
